<?xml version="1.0" standalone="no"?>
<!DOCTYPE svg PUBLIC "-//W3C//DTD SVG 20010904//EN"
 "http://www.w3.org/TR/2001/REC-SVG-20010904/DTD/svg10.dtd">
<svg version="1.0" xmlns="http://www.w3.org/2000/svg"
 width="1200.000000pt" height="1200.000000pt" viewBox="0 0 1200.000000 1200.000000"
 preserveAspectRatio="xMidYMid meet">
<metadata>
Created by potrace 1.14, written by Peter Selinger 2001-2017
</metadata>
<g transform="translate(0.000000,1200.000000) scale(0.100000,-0.100000)"
fill="#000000" stroke="none">
<path d="M5610 11436 c0 -8 6 -18 12 -22 28 -18 -40 -19 -100 -2 -61 16 -92
16 -92 -3 0 -5 4 -9 9 -9 5 0 12 -7 15 -16 8 -20 -28 -15 -102 15 -62 25 -95
27 -111 7 -10 -12 -9 -20 4 -40 l17 -25 -37 6 c-27 4 -47 0 -77 -17 -33 -18
-50 -22 -94 -17 -53 5 -54 5 -40 -15 28 -39 10 -50 -64 -43 -62 6 -68 5 -67
-12 2 -14 -5 -18 -33 -17 -19 0 -46 2 -60 5 -19 3 -25 -1 -28 -16 -6 -32 -16
-37 -93 -42 -48 -3 -82 -11 -99 -23 -14 -10 -63 -30 -110 -46 -47 -15 -91 -32
-97 -37 -20 -15 -15 -44 8 -50 41 -11 8 -28 -111 -58 l-45 -11 30 -13 c22 -9
26 -14 15 -18 -22 -9 -89 -25 -129 -32 -19 -3 -43 -11 -54 -17 -19 -10 -19
-12 -4 -23 15 -11 15 -13 -6 -23 -12 -6 -49 -16 -82 -23 -94 -19 -153 -73 -89
-81 24 -3 24 -4 -13 -23 -67 -34 -102 -61 -181 -136 -42 -41 -86 -81 -98 -89
-26 -19 -94 -111 -125 -170 -13 -25 -31 -53 -40 -63 -26 -29 -54 -86 -46 -94
4 -4 21 1 38 11 17 10 32 16 34 14 6 -6 -36 -90 -52 -107 -28 -28 -53 -91 -47
-116 3 -14 10 -27 14 -30 4 -3 34 22 66 55 32 33 62 60 66 60 5 0 -13 -33 -40
-72 -55 -82 -114 -231 -146 -370 -10 -44 8 -33 38 23 16 28 30 48 33 46 2 -3
-32 -76 -77 -163 -104 -202 -124 -288 -61 -255 28 15 27 4 -4 -63 -25 -55 -41
-95 -44 -108 -1 -4 -10 -28 -21 -53 -11 -25 -17 -45 -13 -45 3 0 1 -6 -4 -12
-14 -18 -46 -118 -40 -125 3 -3 15 12 26 34 11 21 20 33 21 27 0 -10 -13 -43
-65 -159 -31 -70 -36 -150 -12 -185 13 -19 15 -19 28 -4 12 15 14 14 19 -2 4
-10 6 -61 4 -114 -2 -78 -1 -90 9 -67 22 55 29 34 30 -94 0 -39 3 -46 18 -42
11 3 26 27 39 62 32 87 33 89 38 59 4 -30 -54 -210 -88 -276 -16 -30 -26 -39
-38 -35 -14 5 -15 3 -4 -8 6 -7 12 -16 12 -21 0 -4 -96 -7 -212 -6 -117 1
-222 -2 -233 -5 -17 -5 -191 -38 -290 -54 -130 -21 -167 -34 -201 -68 -36 -37
-36 -37 2 -114 23 -49 46 -72 105 -109 26 -16 39 -32 43 -55 3 -17 8 -43 11
-57 5 -26 26 -139 51 -280 22 -123 23 -132 29 -160 3 -14 7 -38 10 -55 18
-102 31 -142 77 -228 l51 -97 121 -63 c66 -36 146 -70 176 -78 62 -15 55 -13
95 -23 70 -18 66 -13 45 -54 -18 -35 -19 -59 -16 -407 1 -203 6 -386 10 -405
7 -34 24 -127 33 -183 2 -15 34 -100 70 -190 36 -89 72 -187 80 -217 8 -30 19
-71 24 -90 13 -47 18 -67 23 -87 3 -10 13 -45 22 -78 10 -36 18 -103 19 -170
2 -64 10 -137 20 -175 9 -36 19 -72 20 -80 2 -8 4 -15 5 -15 1 0 3 -7 5 -15
22 -107 75 -234 120 -290 7 -8 24 -62 38 -120 15 -58 38 -146 51 -195 22 -83
24 -109 24 -328 l0 -238 68 -117 c37 -64 78 -136 91 -159 l24 -41 -64 -41
c-35 -23 -95 -76 -133 -118 -38 -42 -73 -81 -79 -87 -5 -6 -25 -29 -44 -51
-19 -22 -68 -78 -110 -124 -92 -102 -80 -88 -171 -191 -41 -47 -87 -98 -102
-115 -52 -57 -73 -82 -133 -149 -33 -38 -69 -78 -81 -91 -20 -22 -26 -23 -205
-23 -188 0 -212 -3 -324 -52 -11 -5 -30 -11 -41 -15 -12 -3 -57 -41 -101 -84
-44 -43 -90 -82 -102 -86 -24 -7 -22 19 -23 -351 l0 -231 97 -169 c253 -438
289 -500 299 -519 6 -10 16 -25 23 -32 13 -14 6 -36 -67 -218 -18 -44 -38 -97
-46 -117 l-13 -38 4819 0 4820 0 0 365 0 366 -86 197 c-47 108 -96 220 -110
249 -13 28 -24 56 -24 61 0 10 -28 36 -90 82 -18 14 -77 60 -131 103 -96 76
-108 82 -179 92 -19 3 -60 9 -90 14 -30 5 -73 12 -95 16 -22 3 -49 8 -61 10
-12 3 -39 7 -60 10 -21 4 -79 13 -129 21 -49 8 -103 17 -120 20 -37 6 -105 23
-125 31 -8 3 -19 7 -25 9 -5 2 -32 10 -60 18 -27 8 -79 23 -115 34 -229 70
-409 125 -435 132 -148 40 -284 123 -407 248 -80 81 -92 98 -169 252 l-83 165
-157 158 c-87 87 -160 166 -163 175 -7 24 -47 193 -52 222 -3 14 -12 52 -21
85 -8 33 -17 74 -20 90 -5 33 -13 51 -60 135 -17 30 -45 82 -64 115 -18 33
-47 87 -66 120 -18 33 -43 79 -55 102 -12 22 -31 46 -42 52 -19 9 -54 29 -186
104 -25 14 -61 29 -80 32 -19 3 -51 10 -70 15 -19 5 -46 11 -60 14 -78 16
-231 53 -235 58 -8 7 -13 35 -20 115 -4 37 -10 93 -14 124 -4 30 -3 68 1 85
17 60 60 222 79 294 11 41 31 116 44 165 13 50 27 101 30 115 4 14 9 32 12 40
3 8 8 24 10 34 2 11 19 79 39 150 20 72 37 138 39 146 2 8 14 51 25 95 12 44
23 85 24 90 16 64 27 78 41 55 4 -6 56 -10 122 -10 l116 0 85 43 c58 28 107
63 153 107 60 58 81 87 149 205 10 17 33 57 52 90 19 33 45 92 56 131 12 39
39 102 61 140 49 84 80 201 85 315 2 46 6 94 10 107 3 12 8 30 10 40 24 92 39
139 50 152 7 8 22 49 34 92 31 109 32 357 1 479 -11 46 -24 90 -28 97 -4 7
-43 34 -87 60 -73 43 -84 47 -139 45 -33 -1 -74 -4 -92 -8 l-32 -6 14 28 c8
15 15 36 15 45 0 9 4 27 9 40 15 40 61 182 66 206 3 12 7 32 10 45 11 53 15
74 20 112 6 38 32 202 41 255 2 14 8 52 14 85 5 33 12 71 15 84 11 57 19 173
18 261 -1 52 -2 175 -2 273 -1 141 -5 194 -21 250 -10 40 -21 90 -24 112 -3
22 -8 51 -11 65 -3 14 -8 36 -11 50 -3 14 -8 34 -11 45 -4 11 -8 25 -9 30 -6
29 -50 147 -71 190 -29 58 -102 170 -135 205 -13 14 -33 44 -45 68 -12 23 -37
55 -55 70 -18 15 -71 66 -118 114 -70 72 -99 94 -162 123 -42 19 -80 40 -83
45 -9 15 -3 13 67 -20 84 -40 88 -22 10 49 -62 58 -78 66 -249 117 -51 15 -93
31 -93 36 0 4 -5 8 -11 8 -7 0 -8 -7 -4 -17 4 -11 -6 -7 -25 12 -18 17 -51 48
-74 70 -23 22 -53 48 -67 58 -18 13 -21 20 -11 26 19 11 -135 160 -195 188
-54 25 -67 22 -58 -17 4 -20 2 -29 -10 -34 -15 -5 -88 18 -112 36 -7 5 -20 7
-30 4 -13 -4 -27 8 -53 44 -38 54 -50 61 -50 30 0 -27 -9 -25 -49 10 -18 17
-37 30 -41 30 -15 0 -42 -40 -37 -55 9 -22 2 -19 -31 15 -34 33 -58 40 -48 13
4 -9 -17 6 -46 34 -53 49 -105 74 -117 54 -4 -6 -31 14 -60 44 -50 51 -85 68
-93 46 -1 -5 -46 10 -97 34 -52 24 -99 41 -104 38 -5 -3 -7 -16 -4 -29 5 -30
4 -30 -46 5 -53 36 -83 51 -108 56 -12 2 -29 7 -40 10 -13 4 -19 2 -19 -9 0
-11 -15 -8 -67 17 -63 29 -77 32 -183 34 -63 1 -120 2 -126 2 -6 1 -35 19 -64
41 -61 45 -74 49 -65 18 7 -20 5 -21 -40 -15 -27 4 -55 13 -63 20 -8 6 -17 11
-19 9 -2 -1 -13 0 -26 3 -47 11 -73 12 -89 4 -11 -6 -38 3 -91 31 -79 42 -107
49 -107 26z m-2472 -3504 c-1 -4 -11 -28 -22 -54 -14 -37 -24 -48 -45 -50 -23
-3 -26 -7 -24 -42 1 -34 -1 -38 -20 -33 -75 17 -314 81 -325 87 -12 6 41 22
149 46 13 3 33 7 44 9 11 3 49 14 85 24 65 19 165 28 158 13z m-413 -387 c61
-9 124 -18 140 -20 17 -3 64 -10 105 -15 167 -23 156 -19 164 -60 3 -14 14
-56 26 -95 11 -38 25 -106 30 -150 4 -44 11 -96 15 -116 4 -25 -2 -65 -20
-130 -15 -52 -28 -101 -30 -109 -2 -8 -10 -42 -19 -75 -19 -69 -27 -103 -29
-127 -2 -26 -37 -23 -147 13 -98 33 -190 89 -242 147 -33 38 -86 141 -104 202
-7 25 -19 63 -27 85 -8 22 -16 58 -18 80 -1 22 -5 44 -7 49 -11 20 -16 264 -7
311 2 11 4 24 4 28 1 5 13 6 29 3 15 -3 77 -13 137 -21z"/>
<path d="M1798 9543 c7 -3 16 -2 19 1 4 3 -2 6 -13 5 -11 0 -14 -3 -6 -6z"/>
</g>
</svg>
