<?xml version="1.0" encoding="UTF-8" standalone="yes"?>
<svg width="512" height="512" viewBox="0 0 135.46666 135.46667" version="1.2" baseProfile="tiny-ps" xmlns="http://www.w3.org/2000/svg">
  <title>bimi-svg-tiny-12-ps</title>
  <defs id="defs1"/>
  <g id="layer1">
    <path d="m 39.077615,94.090287 q -1.269999,-6.349995 -1.975554,-11.853323 -0.564444,-5.503329 -0.564444,-14.957766 0,-10.01888 0.705555,-16.368875 0.846666,-6.349994 2.116665,-11.712212 2.257775,-9.313326 5.221106,-13.687766 3.104442,-4.515552 8.46666,-6.067773 5.503329,-1.693332 16.086653,-1.693332 8.748882,0 13.687766,0.987777 4.938885,0.846666 7.902216,3.527775 3.104442,2.539998 5.221107,7.902215 l -8.748882,11.429991 q -0.987777,-5.079996 -2.539998,-7.902216 -1.552221,-2.82222 -5.362218,-4.092219 -3.668885,-1.411109 -10.583324,-1.411109 -6.632217,0 -10.159991,1.55222 -3.527775,1.41111 -5.221107,4.515552 -1.693332,3.104442 -2.681109,8.748882 l -0.141111,0.987777 q -0.846666,4.233329 -1.41111,9.595547 -0.564444,5.362218 -0.564444,13.969988 0,7.196661 0.564444,13.405545 z m 30.338863,22.154423 q -11.994434,0 -17.779985,-1.97555 -5.785551,-2.11667 -8.889993,-8.46666 l 8.46666,-11.147769 q 0.987777,4.092219 2.82222,6.491109 1.834443,2.25777 5.362218,3.52777 3.527774,1.12889 9.736658,1.12889 6.773328,0 10.301102,-1.41111 3.668886,-1.55222 5.362218,-4.656663 1.693332,-3.104442 2.681109,-8.889993 0,-0.423333 0.282222,-1.269999 0.846666,-4.515551 1.269999,-9.454436 0.564444,-5.079996 0.564444,-13.405545 0,-5.221106 -0.141111,-7.337771 L 89.172017,55.849208 99.473119,42.161442 q 0.987781,4.797774 1.552221,10.865546 0.56444,5.926662 0.56444,14.534432 0,16.368876 -2.681105,27.234422 -2.257775,9.595548 -5.362217,14.111098 -3.104442,4.37444 -8.46666,5.92666 -5.221107,1.41111 -15.66332,1.41111 z" id="text1" font-size="141.111px" font-family="'Berkeley Mono Variable'" stroke-width="0.264583"/>
  </g>
</svg>