<?xml version="1.0" standalone="no"?>
<!DOCTYPE svg PUBLIC "-//W3C//DTD SVG 20010904//EN"
 "http://www.w3.org/TR/2001/REC-SVG-20010904/DTD/svg10.dtd">
<svg version="1.0" xmlns="http://www.w3.org/2000/svg"
 width="700.000000pt" height="700.000000pt" viewBox="0 0 700.000000 700.000000"
 preserveAspectRatio="xMidYMid meet">
<metadata>
Created by potrace 1.14, written by Peter Selinger 2001-2017
</metadata>
<g transform="translate(0.000000,700.000000) scale(0.100000,-0.100000)"
fill="#000000" stroke="none">
<path d="M3507 6084 c-1 -1 -76 -4 -167 -8 -203 -9 -279 -15 -370 -31 -19 -3
-47 -8 -62 -11 -363 -62 -571 -226 -718 -569 -78 -179 -169 -510 -214 -770 -9
-49 -18 -99 -20 -110 -2 -12 -8 -48 -12 -80 -4 -33 -9 -62 -9 -65 -2 -6 -17
-136 -21 -175 -26 -273 -26 -1346 0 -1493 5 -25 15 -100 21 -152 7 -53 46
-284 61 -357 3 -16 8 -47 11 -70 3 -24 9 -43 12 -43 10 0 15 7 261 330 123
162 227 297 231 300 15 12 30 52 25 68 -28 92 -29 1183 -2 1352 3 14 7 55 11
92 3 37 8 77 10 90 2 13 6 46 10 73 7 62 22 155 35 215 9 41 15 82 25 150 2
14 13 64 25 110 12 47 23 92 25 100 2 8 15 47 30 85 54 143 122 232 225 297
54 34 172 84 221 93 13 3 35 7 49 10 26 4 67 10 155 20 69 8 302 8 410 0 315
-23 531 -126 617 -290 44 -86 119 -323 121 -384 0 -8 6 -6 16 7 9 11 77 100
151 197 74 98 170 222 212 277 l77 100 -25 57 c-134 304 -323 462 -628 526
-61 13 -140 26 -176 30 -36 4 -76 8 -90 10 -60 9 -525 25 -533 19z"/>
<path d="M4872 4466 l-264 -351 9 -100 c15 -186 7 -1013 -12 -1113 -1 -10 -6
-48 -9 -87 -14 -147 -34 -292 -57 -415 -50 -264 -73 -358 -122 -476 -73 -181
-213 -299 -412 -349 -178 -44 -527 -53 -780 -19 -78 10 -190 45 -260 82 -140
73 -234 196 -296 390 -13 39 -25 72 -28 71 -4 0 -33 -37 -66 -82 -33 -45 -129
-173 -214 -284 l-153 -202 33 -58 c87 -155 207 -271 357 -347 78 -39 252 -83
407 -101 28 -4 60 -8 73 -10 152 -25 806 -25 1017 0 17 2 57 6 89 10 33 3 62
8 66 10 3 2 25 6 49 10 24 3 53 10 65 14 11 5 23 8 26 8 15 -1 123 40 170 66
191 102 305 245 413 517 57 142 147 459 173 605 1 11 10 61 18 110 9 50 18
101 21 115 2 13 7 56 11 95 3 38 8 72 9 75 2 3 6 41 9 85 4 44 9 98 11 120 27
243 27 1100 0 1345 -2 19 -7 70 -10 113 -4 43 -8 86 -10 96 -2 10 -6 42 -10
72 -14 117 -51 329 -58 334 -1 1 -121 -156 -265 -349z"/>
</g>
</svg>
